<svg xmlns="http://www.w3.org/2000/svg" xmlns:xlink="http://www.w3.org/1999/xlink" version="1.1" x="0px" y="0px" viewBox="0 0 800 800" style="enable-background:new 0 0 800 800;" xml:space="preserve">
<g id="Background">
	
</g>
<g id="Objects">
	<g>
		<g style="opacity:0.2;">
			
				<circle style="fill:none;stroke:#B6EAFD;stroke-width:4;stroke-linecap:round;stroke-linejoin:round;stroke-dasharray:0.9998,11.9976;" cx="138.5" cy="537.587" r="60"/>
		</g>
		<g style="opacity:0.2;">
			
				<circle style="fill:none;stroke:#B6EAFD;stroke-width:4;stroke-linecap:round;stroke-linejoin:round;stroke-dasharray:1.0009,12.0114;" cx="594" cy="134" r="58"/>
		</g>
		<circle style="fill:#4FC6FD;" cx="608" cy="538" r="6.331"/>
		<circle style="fill:#4FC6FD;" cx="205" cy="183" r="4.87"/>
		<path style="fill:#4FC6FD;" d="M225.43,566c0,2.999-2.431,5.43-5.43,5.43c-2.999,0-5.43-2.431-5.43-5.43s2.431-5.43,5.43-5.43    C222.999,560.57,225.43,563.001,225.43,566z"/>
		<circle style="fill:#4FC6FD;" cx="486" cy="136.57" r="5.43"/>
		<path style="fill:#4FC6FD;" d="M95.43,364c0,2.999-2.431,5.43-5.43,5.43s-5.43-2.431-5.43-5.43s2.431-5.43,5.43-5.43    S95.43,361.001,95.43,364z"/>
		<circle style="fill:#4FC6FD;" cx="654" cy="259" r="5.43"/>
		
			<ellipse transform="matrix(0.7071 -0.7071 0.7071 0.7071 -296.1564 242.6817)" style="fill:#60C1FD;" cx="144.865" cy="478.833" rx="25.5" ry="25.5"/>
		
			<ellipse transform="matrix(0.7071 -0.7071 0.7071 0.7071 59.3427 418.003)" style="fill:#60C1FD;" cx="534.246" cy="137.368" rx="26.846" ry="26.846"/>
		
			<ellipse transform="matrix(0.7071 -0.7071 0.7071 0.7071 -89.1066 599.6146)" style="fill:#60C1FD;" cx="679.246" cy="407.368" rx="22.846" ry="22.846"/>
		
			<ellipse transform="matrix(0.7071 -0.7071 0.7071 0.7071 -229.9594 611.5659)" style="fill:#60C1FD;" cx="623.246" cy="583.368" rx="20.846" ry="20.846"/>
		
			<circle style="fill:none;stroke:#7BCCFD;stroke-width:4;stroke-linecap:round;stroke-linejoin:round;stroke-miterlimit:10;" cx="203" cy="613.714" r="12.286"/>
		
			<circle style="fill:none;stroke:#7BCCFD;stroke-width:4;stroke-linecap:round;stroke-linejoin:round;stroke-miterlimit:10;" cx="452.825" cy="112.416" r="12.286"/>
		
			<circle style="fill:none;stroke:#7BCCFD;stroke-width:4;stroke-linecap:round;stroke-linejoin:round;stroke-miterlimit:10;" cx="208" cy="140" r="17.786"/>
		
			<ellipse transform="matrix(0.1679 -0.9858 0.9858 0.1679 243.0817 923.9783)" style="fill:none;stroke:#7BCCFD;stroke-width:4;stroke-linecap:round;stroke-linejoin:round;stroke-miterlimit:10;" cx="668.858" cy="318" rx="26.142" ry="26.142"/>
		
			<circle style="fill:none;stroke:#7BCCFD;stroke-width:4;stroke-linecap:round;stroke-linejoin:round;stroke-miterlimit:10;" cx="124.232" cy="313.999" r="20.969"/>
		<polygon style="fill:#B6E3FD;" points="133.607,238.543 136,249 146.457,251.393 136,253.786 133.607,264.243 131.214,253.786     120.757,251.393 131.214,249   "/>
		<polygon style="fill:#B6E3FD;" points="597.607,145.543 600,156 610.457,158.393 600,160.786 597.607,171.243 595.214,160.786     584.757,158.393 595.214,156   "/>
		<polygon style="fill:#B6E3FD;" points="579.865,574.119 581.73,582.27 589.881,584.135 581.73,586 579.865,594.151 578,586     569.849,584.135 578,582.27   "/>
		<polygon style="fill:#DBF1FF;" points="405.916,90.788 407.253,96.632 413.098,97.969 407.253,99.306 405.916,105.15     404.579,99.306 398.735,97.969 404.579,96.632   "/>
		<polygon style="fill:#DBF1FF;" points="644.337,364.156 645.674,370 651.518,371.337 645.674,372.674 644.337,378.518     643,372.674 637.156,371.337 643,370   "/>
		<polygon style="fill:#DBF1FF;" points="244.663,600.156 246,606 251.844,607.337 246,608.674 244.663,614.518 243.326,608.674     237.481,607.337 243.326,606   "/>
		<polygon style="fill:#DBF1FF;" points="114.663,422.156 116,428 121.844,429.337 116,430.674 114.663,436.518 113.326,430.674     107.481,429.337 113.326,428   "/>
		<polygon style="fill:#DBF1FF;" points="688.663,263.156 690,269 695.844,270.337 690,271.674 688.663,277.519 687.326,271.674     681.481,270.337 687.326,269   "/>
		<polygon style="fill:#B6E3FD;" points="680.135,459.849 682,468 690.151,469.865 682,471.73 680.135,479.881 678.27,471.73     670.119,469.865 678.27,468   "/>
		<polygon style="fill:#B6E3FD;" points="150.783,530.878 153,540.566 162.688,542.783 153,545 150.783,554.688 148.566,545     138.878,542.783 148.566,540.566   "/>
		<rect x="212.031" y="514.602" style="fill:#7BCCFD;" width="0" height="0"/>
		<circle style="fill:#B6EAFD;" cx="212.031" cy="514.602" r="7.872"/>
		<circle style="fill:#B6EAFD;" cx="172.964" cy="299.703" r="7.872"/>
		<circle style="fill:#B6EAFD;" cx="401.419" cy="131.487" r="7.872"/>
		
			<ellipse transform="matrix(0.7071 -0.7071 0.7071 0.7071 -143.8267 390.9458)" style="fill:#8AD1FD;" cx="400" cy="369.087" rx="195.657" ry="195.657"/>
		<circle style="fill:#9BD8FD;" cx="400" cy="369.087" r="153.24"/>
		<circle style="fill:#B8E3FD;" cx="400" cy="369.087" r="101.514"/>
		<g style="opacity:0.6;">
			
				<ellipse transform="matrix(0.7071 -0.7071 0.7071 0.7071 -143.8267 390.9458)" style="fill:none;stroke:#B6EAFD;stroke-width:4;stroke-linecap:round;stroke-linejoin:round;stroke-dasharray:0.9966,11.9592;" cx="400" cy="369.087" rx="216.5" ry="216.5"/>
		</g>
		
			<path style="opacity:0.6;fill:none;stroke:#B6EAFD;stroke-width:4;stroke-linecap:round;stroke-linejoin:round;stroke-miterlimit:10;" d="    M172.964,298.423c30.087-96.732,120.315-166.967,226.948-166.967"/>
		
			<path style="opacity:0.6;fill:none;stroke:#B6EAFD;stroke-width:4;stroke-linecap:round;stroke-linejoin:round;stroke-miterlimit:10;" d="    M621.496,455.105c-34.466,88.722-120.681,151.613-221.585,151.613c-76.418,0-144.411-36.071-187.881-92.116"/>
		<g>
			<polygon style="fill:#DCAB69;" points="433.691,425.4 445.474,428.207 440.557,447.759 425.744,444.038    "/>
			<polygon style="fill:#FFFFFF;" points="431.761,416.518 438.246,419.833 429.543,452.12 421.119,447.877    "/>
			<path style="fill:#225270;" d="M383.751,400.033c4.887,2.525,52.514,14.375,52.556,14.385l-13.375,37.587     c-13.429-3.266-47.579-11.515-57.761-16.915c-10.257-5.44-48.877-29.128-50.78-30.235c-9.471-5.509-12.677-17.655-7.174-27.122     c5.509-9.471,17.652-12.683,27.123-7.174C350.226,379.798,376.099,395.974,383.751,400.033z"/>
			<g>
				<path style="fill:#204D69;" d="M414.313,444.316c-0.167-1.415,0.845-2.697,2.259-2.864c1.415-0.167,2.697,0.845,2.864,2.26      c0.167,1.415-0.845,2.697-2.259,2.864C415.763,446.743,414.48,445.731,414.313,444.316z"/>
				<path style="fill:#204D69;" d="M405.26,442.079c-0.167-1.415,0.845-2.697,2.259-2.864c1.415-0.167,2.697,0.845,2.864,2.259      c0.167,1.415-0.844,2.697-2.259,2.864C406.71,444.506,405.428,443.494,405.26,442.079z"/>
			</g>
			<path style="fill:#DCAB69;" d="M454.568,433.759c3.171-0.505,5.331-3.485,4.826-6.656l0,0c-0.505-3.171-3.485-5.331-6.656-4.826     l-5.96,0.95c-3.171,0.505-5.331,3.485-4.826,6.656l0,0c0.505,3.171,3.485,5.331,6.656,4.826L454.568,433.759z"/>
			<path style="fill:#DCAB69;" d="M434.394,442.083l2.918-12.22c1.111-4.652,5.783-7.523,10.435-6.413l13.011,2.474     c4.652,1.111,8.329,5.756,6.413,10.435c-1.344,3.282-3.265,7.553-5.1,11.699c-1.835,4.146-5.783,7.523-10.435,6.413     l-10.829-1.953C436.154,451.407,433.283,446.735,434.394,442.083z"/>
		</g>
		<g>
			<g>
				<path style="fill:none;stroke:#4D2714;stroke-width:8;stroke-linecap:round;stroke-linejoin:round;stroke-miterlimit:10;" d="      M322.679,627.299c0,0.585,0.474,1.059,1.059,1.059h38.081c0.585,0,1.059-0.474,1.059-1.059v-22.698      c0-0.585-0.474-1.059-1.059-1.059h-38.081c-0.585,0-1.059,0.474-1.059,1.059V627.299z"/>
				<g>
					<path style="fill:#522617;" d="M279.667,694.17c0,4.065,3.295,7.36,7.36,7.36H398.53c4.065,0,7.36-3.295,7.36-7.36v-67.178       c0-4.065-3.295-7.36-7.36-7.36H287.027c-4.065,0-7.36,3.295-7.36,7.36V694.17z"/>
					<path style="fill:#632D1B;" d="M284.962,618.788h115.634c4.215,0,7.632,3.417,7.632,7.632v28.972       c-17.358,6.638-40.296,10.677-65.449,10.677c-25.153,0-48.091-4.039-65.449-10.677V626.42       C277.329,622.205,280.746,618.788,284.962,618.788z"/>
					<path style="fill:#B89234;" d="M335.794,670.192c0,0.874,0.708,1.583,1.582,1.583h10.805c0.874,0,1.583-0.708,1.583-1.583       v-10.805c0-0.874-0.709-1.582-1.583-1.582h-10.805c-0.874,0-1.582,0.708-1.582,1.582V670.192z"/>
					<path style="fill:#976615;" d="M337.916,668.551c0,0.609,0.493,1.102,1.102,1.102h7.522c0.609,0,1.102-0.493,1.102-1.102       v-7.522c0-0.608-0.493-1.102-1.102-1.102h-7.522c-0.608,0-1.102,0.493-1.102,1.102V668.551z"/>
				</g>
			</g>
			<g>
				<path style="fill:#0A1C26;" d="M304.567,703.467v6.772c0,0,16.375,0,17.998,0c1.624,0,2.977-3.386,5.819-3.386      c2.842,0,5.684,0,7.037,0c1.353,0,15.684,5.041,17.348,5.041c4.06,0,23.791-0.301,29.475-3.16v-4.515      c0,0-0.135-6.621-6.496-6.621c-6.36,0-22.464-3.461-37.215-16.554c0,0-9.337,13.393-33.29,4.214      C305.244,685.258,302.808,694.588,304.567,703.467z"/>
				<path d="M328.702,705.457c-4.172,0-14.829,0.862-24.135-1.99v6.772c0,0,7.669,3.013,18.171,0.453      c1.586-0.387,4.121-3.012,5.647-3.012c2.842,0,5.684,0,7.037,0c7.426,0,11.81,3.606,15.833,4.214      c6.87,1.038,25.306-0.301,30.99-3.16v-4.515c0,0-0.003-0.162-0.033-0.435c-2.962,1.173-9.19,3.013-19.483,3.229      C347.48,707.333,332.874,705.457,328.702,705.457z"/>
			</g>
			<path style="fill:#204D69;" d="M282.229,517.122l22.855,168.431c0,0,17.134,11.698,36.994-1.74c0,0-13.409-25.504,3.01-174.874     L282.229,517.122z"/>
			<g>
				<path style="fill:#452008;" d="M499.177,703.467v6.772c0,0-16.374,0-17.998,0c-1.624,0-2.977-3.386-5.819-3.386      c-2.842,0-5.684,0-7.037,0c-1.353,0-15.684,5.041-17.349,5.041c-4.06,0-23.791-0.301-29.474-3.16v-4.515      c0,0,0.135-6.621,6.496-6.621c6.36,0,22.464-3.461,37.215-16.554c0,0,9.338,13.393,33.29,4.214      C498.501,685.258,500.937,694.588,499.177,703.467z"/>
				<path style="fill:#1A0C03;" d="M475.043,705.457c4.172,0,14.829,0.862,24.135-1.99v6.772c0,0-7.669,3.013-18.171,0.453      c-1.586-0.387-4.121-3.012-5.647-3.012c-2.842,0-5.684,0-7.037,0c-7.426,0-11.81,3.606-15.833,4.214      c-6.87,1.038-25.306-0.301-30.99-3.16v-4.515c0,0,0.003-0.162,0.033-0.435c2.961,1.173,9.19,3.013,19.483,3.229      C456.264,707.333,470.871,705.457,475.043,705.457z"/>
			</g>
			<path style="fill:#524747;" d="M521.516,517.122l-22.855,168.431c0,0-17.134,11.698-36.994-1.74c0,0,13.409-25.504-3.01-174.874     L521.516,517.122z"/>
			<path style="fill:#DB8E34;" d="M401.669,473.992l-12.917-9.329c-2.204-1.546-5.244-1.013-6.79,1.191l-4.061,5.789     c-1.546,2.204-1.013,5.244,1.191,6.79l11.883,8.604c2.204,1.546,4.97,0.598,6.79-1.191c1.82-1.789,3.711-3.625,5.095-5.064     C404.833,478.732,403.873,475.539,401.669,473.992z"/>
			<polygon style="fill:#DCAB69;" points="426.692,461.271 438.28,476.336 409.74,488.907 407.064,469.655    "/>
			<path style="fill:#DCAB69;" d="M376.894,486.773l17.93-17.059c3.069-2.84,7.859-2.655,10.7,0.414l7.461,8.061     c2.84,3.069,2.655,7.859-0.413,10.7l-16.49,15.727c-3.069,2.84-7.525,1.959-10.7-0.414c-3.175-2.373-6.469-4.803-8.9-6.728     C373.015,494.729,373.825,489.614,376.894,486.773z"/>
			<polygon style="fill:#FFFFFF;" points="420.484,456.476 413.699,459.124 419.12,492.121 427.927,488.744    "/>
			<path style="fill:#5C5050;" d="M426.12,491.146l-9.544-35.122c0.266-0.111,0.535-0.218,0.809-0.318     c18.681-6.791,40.686-15.481,50.992-20.32c-0.605-9.049-3.791-26.728-7.876-42.839c-2.495-9.825,3.448-19.812,13.273-22.306     c9.825-2.482,19.811,3.449,22.306,13.274c0.144,0.567,3.553,14.045,6.136,28.533c5.082,28.51,3.765,40.822-5.221,48.79     c-2.358,2.091-69.572,30.129-70.831,30.304C426.15,491.144,426.135,491.144,426.12,491.146z"/>
			<g>
				<path style="fill:#524747;" d="M428.793,483.582c0.196,1.411,1.499,2.396,2.91,2.2c1.411-0.196,2.396-1.499,2.2-2.91      c-0.196-1.411-1.499-2.396-2.91-2.2C429.582,480.868,428.597,482.171,428.793,483.582z"/>
				<path style="fill:#524747;" d="M436.986,479.129c0.196,1.411,1.499,2.396,2.91,2.2c1.411-0.196,2.396-1.499,2.2-2.91      c-0.196-1.411-1.499-2.396-2.91-2.2C437.775,476.414,436.79,477.717,436.986,479.129z"/>
			</g>
			<g>
				<path style="fill:#102838;" d="M290.725,707.158v6.772c0,0,16.375,0,17.998,0c1.624,0,2.977-3.386,5.819-3.386      c2.842,0,5.684,0,7.037,0c1.353,0,15.684,5.041,17.349,5.041c4.06,0,23.791-0.301,29.475-3.16v-4.515      c0,0-0.135-6.621-6.496-6.621c-6.36,0-22.464-3.461-37.215-16.554c0,0-9.338,13.393-33.29,4.214      C291.402,688.949,288.966,698.279,290.725,707.158z"/>
				<path d="M314.86,709.148c-4.172,0-14.829,0.862-24.135-1.99v6.772c0,0,7.669,3.013,18.171,0.453      c1.586-0.387,4.121-3.012,5.647-3.012c2.842,0,5.684,0,7.037,0c7.426,0,11.81,3.606,15.833,4.214      c6.87,1.038,25.306-0.301,30.99-3.16v-4.515c0,0-0.003-0.162-0.033-0.435c-2.961,1.173-9.19,3.013-19.483,3.229      C333.638,711.024,319.032,709.148,314.86,709.148z"/>
			</g>
			<polygon style="fill:#DB8E34;" points="364.498,460.432 352.91,475.497 381.45,488.068 384.126,468.816    "/>
			<path style="fill:#DB8E34;" d="M412.329,485.109l-19.221-15.589c-3.284-2.589-8.044-2.026-10.634,1.258l-6.801,8.625     c-2.589,3.284-2.026,8.044,1.257,10.634l17.681,14.375c3.284,2.589,7.656,1.359,10.634-1.257c2.978-2.616,6.07-5.299,8.341-7.41     C416.824,492.733,415.613,487.698,412.329,485.109z"/>
			<path style="fill:#25597A;" d="M281.136,520.814l9.952,168.431c0,0,16.197,11.698,37.133-1.74c0,0-11.957-25.504,16.43-174.874     L281.136,520.814z"/>
			<polygon style="fill:#DB8E34;" points="308.044,318.135 300.662,355.723 336.945,363.426 333.18,333.775    "/>
			<ellipse style="fill:#DB8E34;" cx="329.205" cy="300.06" rx="30.431" ry="31.298"/>
			<path style="fill:#204D69;" d="M355.668,531.091V395.133c0-25.224-36.976-41.802-62.199-41.802     c-18.463,14.711-26.84,88.88-24.251,177.76H355.668z"/>
			<path style="fill:#FD4F38;" d="M346.336,359.162c1.183,3.307-0.539,6.946-3.845,8.129l0,0c-3.307,1.183-6.947-0.539-8.13-3.845     l-2.387-6.809c-1.183-3.307,0.539-6.947,3.845-8.13l0,0c3.307-1.183,6.947,0.539,8.129,3.845L346.336,359.162z"/>
			<path style="fill:#FD6C59;" d="M354.952,379.531c1.338,3.247-0.21,6.964-3.458,8.302l0,0c-3.247,1.338-6.964-0.211-8.302-3.458     l-5.605-13.608c-1.338-3.247,0.211-6.964,3.458-8.302l0,0c3.247-1.338,6.964,0.211,8.302,3.458L354.952,379.531z"/>
			<polygon style="fill:#FFFFFF;" points="298.954,351.454 298.954,334.394 340.099,344.763 335.041,361.225    "/>
			<polygon style="fill:#25597A;" points="337.107,354.409 297.848,336.309 291.107,353.54 355.668,380.908    "/>
			<polygon style="fill:#25597A;" points="343.023,363.917 334.695,381.261 355.668,426.61 355.668,380.908    "/>
			<polygon style="fill:#DB8E34;" points="322.823,330.665 343.079,340.578 362.531,340.578 357.031,307.141 322.823,302.691    "/>
			<polygon style="fill:#DB8E34;" points="353.245,295.65 365.02,320.181 353.265,321.92    "/>
			<path style="fill:#543714;" d="M325.872,288.584c-1.786,3.626-1.943,8.624,5.016,11.58c0,0-1.683,7.481,2.15,13.914h-8.526     l-1.689-8.378c0,0-12.514,2.578-6.257,8.378c0,0-0.642,11.158-10.149,12.346c-9.507,1.188-10.796-3.189-10.796-3.189     s4.519-2.855,5.042-6.902c0.523-4.046-7.415-18.642-5.042-29.324c1.289-5.8,8.003-20.623,27.203-23.846     c19.2-3.222,43.901,0.082,43.143,3.949c-0.758,3.867-8.462,18.454-12.323,18.278     C351.047,285.274,330.511,279.163,325.872,288.584z"/>
			<path style="fill:#DB8E34;" d="M324.921,308.553c1.194,5.443-1.1,10.571-5.124,11.453c-4.023,0.882-8.253-2.815-9.446-8.259     c-1.194-5.443,1.101-10.571,5.124-11.453C319.499,299.412,323.728,303.11,324.921,308.553z"/>
			<path style="fill:#754C1C;" d="M353.305,283.375c0,0,8.578-10.631,6.33-15.292c-2.094-4.343-8.593-4.343-9.938-2.928     C351.256,264.767,362.372,266.947,353.305,283.375z"/>
			<path style="fill:#754C1C;" d="M351.207,281.854c0,0,3.898-8.564,0.938-11.767c-3.157-3.417-7.586-2.405-7.586-2.405     S355.077,269.856,351.207,281.854z"/>
			<polygon style="fill:#FFFFFF;" points="367.561,456.476 374.345,459.124 368.925,492.121 360.118,488.744    "/>
			<path style="fill:#25597A;" d="M361.924,491.146l9.544-35.122c-0.266-0.111-0.535-0.218-0.809-0.318     c-18.681-6.791-40.686-15.481-50.991-20.32c0.605-9.049,3.791-26.728,7.876-42.839c2.495-9.825-3.448-19.812-13.273-22.306     c-9.825-2.482-19.812,3.449-22.306,13.274c-0.144,0.567-3.553,14.045-6.136,28.533c-5.082,28.51-3.765,40.822,5.221,48.79     c2.358,2.091,69.572,30.129,70.831,30.304C361.894,491.144,361.909,491.144,361.924,491.146z"/>
			<g>
				<path style="fill:#204D69;" d="M359.251,483.582c-0.196,1.411-1.499,2.396-2.91,2.2c-1.411-0.196-2.396-1.499-2.2-2.91      c0.196-1.411,1.499-2.396,2.91-2.2C358.463,480.868,359.447,482.171,359.251,483.582z"/>
				<path style="fill:#204D69;" d="M351.058,479.129c-0.196,1.411-1.499,2.396-2.91,2.2c-1.411-0.196-2.396-1.499-2.2-2.91      c0.196-1.411,1.499-2.396,2.91-2.2C350.27,476.414,351.254,477.717,351.058,479.129z"/>
			</g>
			<g>
				<path style="fill:#57290A;" d="M510.238,707.158v6.772c0,0-16.374,0-17.998,0s-2.977-3.386-5.819-3.386      c-2.842,0-5.684,0-7.037,0c-1.353,0-15.684,5.041-17.349,5.041c-4.06,0-23.791-0.301-29.474-3.16v-4.515      c0,0,0.135-6.621,6.496-6.621c6.36,0,22.464-3.461,37.215-16.554c0,0,9.338,13.393,33.29,4.214      C509.562,688.949,511.998,698.279,510.238,707.158z"/>
				<path style="fill:#3B1C07;" d="M486.104,709.148c4.172,0,14.829,0.862,24.135-1.99v6.772c0,0-7.669,3.013-18.171,0.453      c-1.586-0.387-4.121-3.012-5.647-3.012c-2.842,0-5.684,0-7.037,0c-7.426,0-11.81,3.606-15.833,4.214      c-6.87,1.038-25.306-0.301-30.99-3.16v-4.515c0,0,0.003-0.162,0.033-0.435c2.961,1.173,9.19,3.013,19.483,3.229      C467.325,711.024,481.932,709.148,486.104,709.148z"/>
			</g>
			<path style="fill:#5C5050;" d="M519.827,520.814l-9.952,168.431c0,0-16.197,11.698-37.133-1.74c0,0,11.957-25.504-16.43-174.874     L519.827,520.814z"/>
			<polygon style="fill:#DCAB69;" points="492.92,318.135 500.302,355.723 464.018,363.426 467.784,333.775    "/>
			<ellipse style="fill:#DCAB69;" cx="471.759" cy="300.06" rx="30.431" ry="31.298"/>
			<path style="fill:#524747;" d="M445.296,531.091V395.133c0-25.224,36.975-41.802,62.199-41.802     c18.463,14.711,26.84,88.88,24.251,177.76H445.296z"/>
			<path style="fill:#186C9F;" d="M454.628,359.162c-1.183,3.307,0.539,6.946,3.845,8.129l0,0c3.307,1.183,6.947-0.539,8.13-3.845     l2.387-6.809c1.183-3.307-0.539-6.947-3.845-8.13l0,0c-3.307-1.183-6.947,0.539-8.129,3.845L454.628,359.162z"/>
			<path style="fill:#367FAB;" d="M446.011,379.531c-1.338,3.247,0.211,6.964,3.458,8.302l0,0c3.247,1.338,6.964-0.211,8.302-3.458     l5.605-13.608c1.338-3.247-0.211-6.964-3.458-8.302l0,0c-3.247-1.338-6.964,0.211-8.302,3.458L446.011,379.531z"/>
			<polygon style="fill:#FFFFFF;" points="502.009,351.454 502.009,334.394 460.865,344.763 465.923,361.225    "/>
			<polygon style="fill:#5C5050;" points="463.857,354.409 503.116,336.309 509.857,353.54 445.296,380.908    "/>
			<polygon style="fill:#5C5050;" points="457.941,363.917 466.269,381.261 445.296,426.61 445.296,380.908    "/>
			<polygon style="fill:#DCAB69;" points="478.141,330.665 457.885,340.578 437.433,340.578 444.933,307.141 478.141,302.691    "/>
			<polygon style="fill:#DCAB69;" points="447.659,296.129 434.998,320.903 447.659,320.903    "/>
			<path style="fill:#2C2A28;" d="M475.092,288.584c1.786,3.626,1.943,8.624-5.016,11.58c0,0,1.683,7.481-2.15,13.914h8.526     l1.689-8.378c0,0,12.514,2.578,6.257,8.378c0,0,0.642,11.158,10.149,12.346c9.507,1.188,10.292-2.891,10.292-2.891     s0.971-10.75,0.448-14.796c-0.523-4.047,15.245-23.315-0.897-28.247c-4.035-16.141-8.521-9.461-26.454-17.038     c-11.938-5.044-28.099-5.135-35.87-0.897c-9.864,5.38-10.08,25.378,5.254,22.837     C449.884,284.967,470.453,279.163,475.092,288.584z"/>
			<path style="fill:#DCAB69;" d="M476.042,308.553c-1.194,5.443,1.1,10.571,5.124,11.453s8.253-2.815,9.446-8.259     c1.194-5.443-1.101-10.571-5.124-11.453C481.465,299.412,477.236,303.11,476.042,308.553z"/>
			<path style="fill:#DCAB69;" d="M408.568,468.559c1.212,2.616,0.073,5.719-2.542,6.93l-9.07,4.201     c-2.616,1.212-5.719,0.073-6.93-2.542l0,0c-1.212-2.616-0.073-5.719,2.542-6.93l9.07-4.201     C404.253,464.805,407.356,465.943,408.568,468.559L408.568,468.559z"/>
			<path style="fill:#DCAB69;" d="M396.07,498.879c1.728,1.274,2.064,3.75,0.751,5.531l0,0c-1.313,1.781-3.778,2.192-5.506,0.918     l-15.172-11.186c-1.728-1.274-2.064-3.75-0.751-5.531l0,0c1.313-1.781,3.778-2.192,5.506-0.918L396.07,498.879z"/>
			<path style="fill:#615E5A;" d="M445.609,281.724c0,0,17.823-10.29,32.155-3.307C477.764,278.416,459.39,274.006,445.609,281.724z     "/>
			<path style="fill:#615E5A;" d="M446.883,279.077c0,0,18.865-13.244,35.545-6.873     C482.428,272.203,461.492,269.103,446.883,279.077z"/>
			<path style="fill:#CC8432;" d="M360.809,327.06c0,0-4.208,2.46-11.16,0.429c0,0,4.999,3.671,11.578,1.58L360.809,327.06z"/>
			<path style="fill:#C2985C;" d="M440.187,327.06c0,0,4.208,2.46,11.16,0.429c0,0-4.999,3.671-11.578,1.58L440.187,327.06z"/>
			<polygon style="fill:#DCAB69;" points="485.372,516.311 483.206,528.229 503.084,531.588 505.633,516.528    "/>
			<polygon style="fill:#FFFFFF;" points="478.016,510.974 478.444,518.244 511.505,523.256 511.007,513.837    "/>
			<path style="fill:#5C5050;" d="M481.859,456.608c0.347,5.49-7.586,57.642-7.594,57.684l39.793,2.865     c2.408-13.609,8.221-51.973,7.37-63.468c-0.858-11.579-6.703-63.092-6.952-65.279c-1.236-10.886-11.069-18.705-21.949-17.473     c-10.887,1.236-18.71,11.064-17.473,21.95C477.127,411.148,481.219,447.969,481.859,456.608z"/>
			<g>
				<path style="fill:#524747;" d="M510.483,506.174c-1.228-0.722-2.809-0.311-3.531,0.917c-0.722,1.228-0.311,2.809,0.917,3.531      c1.228,0.722,2.809,0.311,3.531-0.917C512.122,508.477,511.711,506.896,510.483,506.174z"/>
				<path style="fill:#524747;" d="M512.074,496.986c-1.228-0.722-2.809-0.311-3.531,0.917s-0.311,2.809,0.917,3.531      c1.228,0.722,2.809,0.311,3.531-0.917C513.713,499.288,513.302,497.707,512.074,496.986z"/>
			</g>
			<path style="fill:#DCAB69;" d="M484.632,538.788c-1.737,2.7-5.334,3.48-8.034,1.743l0,0c-2.7-1.737-3.48-5.334-1.743-8.034     l3.266-5.075c1.737-2.7,5.334-3.48,8.034-1.743l0,0c2.7,1.737,3.48,5.334,1.743,8.034L484.632,538.788z"/>
			<g>
				<path style="fill:none;stroke:#373736;stroke-width:8;stroke-linecap:round;stroke-linejoin:round;stroke-miterlimit:10;" d="      M509.895,562.095c0,0.585-0.474,1.059-1.059,1.059h-38.082c-0.585,0-1.059-0.474-1.059-1.059v-22.698      c0-0.585,0.474-1.059,1.059-1.059h38.082c0.585,0,1.059,0.474,1.059,1.059V562.095z"/>
				<g>
					<path style="fill:#1B1B1A;" d="M552.907,628.966c0,4.065-3.295,7.36-7.36,7.36H434.044c-4.065,0-7.36-3.295-7.36-7.36v-67.178       c0-4.065,3.295-7.36,7.36-7.36h111.504c4.065,0,7.36,3.295,7.36,7.36V628.966z"/>
					<path style="fill:#262624;" d="M547.612,553.583H431.979c-4.215,0-7.632,3.417-7.632,7.632v28.972       c17.359,6.638,40.296,10.677,65.449,10.677c25.153,0,48.09-4.039,65.449-10.677v-28.972       C555.245,557.001,551.828,553.583,547.612,553.583z"/>
					<path style="fill:#696561;" d="M496.78,604.988c0,0.874-0.708,1.582-1.582,1.582h-10.805c-0.874,0-1.583-0.708-1.583-1.582       v-10.805c0-0.874,0.708-1.583,1.583-1.583h10.805c0.874,0,1.582,0.708,1.582,1.583V604.988z"/>
					<path style="fill:#373736;" d="M494.658,603.347c0,0.608-0.493,1.102-1.102,1.102h-7.522c-0.608,0-1.102-0.493-1.102-1.102       v-7.522c0-0.609,0.493-1.102,1.102-1.102h7.522c0.608,0,1.102,0.493,1.102,1.102V603.347z"/>
				</g>
			</g>
			<path style="fill:#DCAB69;" d="M500.365,523.662l-12.362-2.241c-4.706-0.853-9.213,2.27-10.067,6.977l-2.965,12.908     c-0.853,4.706,1.922,9.94,6.977,10.067c3.546,0.089,8.228,0.047,12.762,0.034c4.534-0.013,9.213-2.27,10.067-6.976l2.565-10.7     C508.195,529.022,505.071,524.515,500.365,523.662z"/>
		</g>
		
			<ellipse transform="matrix(0.9292 -0.3697 0.3697 0.9292 -46.1116 233.7416)" style="fill: #58C1FD;" cx="586.876" cy="237.196" rx="57.295" ry="57.295"/>
		<circle style="fill:#58C1FD;" cx="323.073" cy="151.376" r="47.795"/>
		<circle style="fill:#58C1FD;" cx="609.552" cy="467.584" r="50.295"/>
		<circle style="fill:#58C1FD;" cx="188.208" cy="388.42" r="60.295"/>
		<g>
			<g>
				<polygon style="fill:#FAF3ED;" points="614.94,271.873 563.49,271.873 563.49,202.518 599.204,202.518 604.951,213.871       614.94,218.254     "/>
				<polygon style="fill:#E8DBD1;" points="614.94,218.254 599.204,218.254 599.204,202.518     "/>
			</g>
			<g>
				<path style="fill:#DCD6D1;" d="M606.722,225.124c0,0.671-0.544,1.215-1.215,1.215h-32.584c-0.671,0-1.215-0.544-1.215-1.215l0,0      c0-0.671,0.544-1.215,1.215-1.215h32.584C606.178,223.909,606.722,224.453,606.722,225.124L606.722,225.124z"/>
				<path style="fill:#DCD6D1;" d="M606.722,233.163c0,0.671-0.544,1.215-1.215,1.215h-32.584c-0.671,0-1.215-0.544-1.215-1.215l0,0      c0-0.671,0.544-1.215,1.215-1.215h32.584C606.178,231.949,606.722,232.492,606.722,233.163L606.722,233.163z"/>
				<path style="fill:#DCD6D1;" d="M606.722,241.203c0,0.671-0.544,1.215-1.215,1.215h-32.584c-0.671,0-1.215-0.544-1.215-1.215l0,0      c0-0.671,0.544-1.215,1.215-1.215h32.584C606.178,239.988,606.722,240.532,606.722,241.203L606.722,241.203z"/>
			</g>
			<g>
				
					<ellipse transform="matrix(0.2289 -0.9735 0.9735 0.2289 203.5626 772.3677)" style="fill:#26DC3D;" cx="589.284" cy="257.699" rx="9.136" ry="9.136"/>
				
					<polyline style="fill:none;stroke:#FFFFFF;stroke-width:2;stroke-linecap:round;stroke-linejoin:round;stroke-miterlimit:10;" points="      584.738,257.614 587.874,260.75 594.342,255.458     "/>
			</g>
		</g>
		<path style="fill:#FD4A5F;" d="M181.418,360.949l0-0.004c-0.097,0.008-0.192,0.022-0.289,0.031    C181.225,360.967,181.321,360.957,181.418,360.949z"/>
		<path style="fill:#599EC7;" d="M219.901,393.986c0-0.543-0.015-1.083-0.041-1.619c-0.018-0.379-0.05-0.754-0.08-1.129    c-0.011-0.136-0.018-0.274-0.031-0.41c-0.045-0.483-0.103-0.961-0.168-1.438c-0.002-0.018-0.004-0.036-0.007-0.054    c-2.267-16.428-16.355-29.081-33.406-29.081c-2.828,0-5.574,0.353-8.199,1.009l0.004,0.014    c-14.667,3.662-25.537,16.909-25.537,32.711h0c0,13.286,7.696,24.751,18.859,30.251l-0.011,0.022    c0.227,0.112,0.462,0.211,0.693,0.318c0.082,0.038,0.16,0.083,0.242,0.121l0.004-0.008c4.253,1.936,8.969,3.03,13.947,3.03    c18.46,0,33.449-14.831,33.72-33.227l0,0C219.891,394.323,219.901,394.155,219.901,393.986z"/>
		<g>
			<path style="fill:#3B80F5;" d="M173.549,419.457c4.49,2.212,9.541,3.46,14.885,3.46c18.63,0,33.733-15.103,33.733-33.733     c0-2.1-0.202-4.152-0.569-6.145l-33.164,6.145L173.549,419.457z"/>
			<path style="fill:#F5C03A;" d="M180.235,356.46l8.199,32.724l33.72,0.506c0.002-0.169,0.013-0.336,0.013-0.506     c0-18.63-15.103-33.733-33.733-33.733C185.605,355.451,182.86,355.804,180.235,356.46z"/>
			<path style="fill:#3BFF56;" d="M174.484,419.896l13.95-30.712h-33.733C154.701,402.837,162.817,414.587,174.484,419.896z"/>
			<path style="fill:#FD4A5F;" d="M180.238,356.473c-14.667,3.662-25.538,16.909-25.538,32.711h33.733L180.238,356.473z"/>
		</g>
		<g style="opacity:0.4;">
			<path style="fill:#FFFFFF;" d="M197.767,401.48c0,2.91-1.84,4.43-3.852,4.43c-2.119,0-3.789-1.583-3.789-4.195     c0-2.483,1.52-4.366,3.896-4.366C196.419,397.349,197.767,399.103,197.767,401.48z M192.545,401.629     c0,1.455,0.492,2.504,1.433,2.504c0.921,0,1.37-0.942,1.37-2.504c0-1.412-0.385-2.504-1.391-2.504     C192.994,399.125,192.545,400.238,192.545,401.629z M194.085,411.731l7.983-14.383h1.755l-8.004,14.383H194.085z      M207.783,407.258c0,2.91-1.84,4.43-3.852,4.43c-2.097,0-3.767-1.584-3.789-4.195c0-2.482,1.52-4.366,3.896-4.366     C206.435,403.127,207.783,404.882,207.783,407.258z M202.583,407.408c-0.022,1.455,0.47,2.503,1.412,2.503     c0.92,0,1.37-0.941,1.37-2.503c0-1.413-0.364-2.504-1.37-2.504C203.011,404.904,202.583,406.017,202.583,407.408z"/>
		</g>
		
			<ellipse transform="matrix(0.1463 -0.9892 0.9892 0.1463 56.9186 1001.2808)" style="fill:#E6C027;" cx="608.571" cy="467.663" rx="28.622" ry="28.621"/>
		<g style="opacity:0.6;">
			<path style="fill:#C2A220;" d="M610.467,443.337c0-0.803-0.651-1.453-1.453-1.453h-12.888c-1.685,0.815-3.277,1.791-4.758,2.907     h17.646C609.816,444.791,610.467,444.14,610.467,443.337z"/>
			<path style="fill:#C2A220;" d="M606.554,454.137c0.803,0,1.453-0.651,1.453-1.453c0-0.803-0.651-1.453-1.453-1.453h-21.41     c-0.654,0.931-1.258,1.899-1.799,2.907H606.554z"/>
			<path style="fill:#C2A220;" d="M610.355,488.617h-21.272c1.145,1.066,2.376,2.039,3.684,2.907h17.588     c0.803,0,1.453-0.651,1.453-1.453S611.158,488.617,610.355,488.617z"/>
			<path style="fill:#C2A220;" d="M607.56,480.724c0-0.803-0.651-1.453-1.453-1.453H582.41c0.445,1,0.943,1.971,1.495,2.907h22.201     C606.909,482.177,607.56,481.527,607.56,480.724z"/>
			<path style="fill:#C2A220;" d="M604.877,471.377c0-0.803-0.651-1.453-1.453-1.453h-23.376c0.077,0.984,0.203,1.953,0.377,2.907     h22.999C604.226,472.831,604.877,472.18,604.877,471.377z"/>
			<path style="fill:#C2A220;" d="M603.647,463.484c0.803,0,1.453-0.651,1.453-1.453c0-0.803-0.651-1.454-1.453-1.454h-22.811     c-0.242,0.951-0.434,1.921-0.579,2.907H603.647z"/>
		</g>
		
			<ellipse transform="matrix(0.1588 -0.9873 0.9873 0.1588 54.5453 999.3441)" style="fill:#FDE721;" cx="613.714" cy="467.663" rx="28.622" ry="28.621"/>
		<g style="opacity:0.4;">
			
				<ellipse transform="matrix(0.7532 -0.6577 0.6577 0.7532 -156.1634 519.0695)" style="fill:none;stroke:#E6C027;stroke-width:2;stroke-linecap:round;stroke-linejoin:round;stroke-dasharray:0.9873,3.9492;" cx="613.714" cy="467.663" rx="25.148" ry="25.148"/>
		</g>
		<ellipse style="fill:#E6C027;" cx="613.714" cy="467.663" rx="22.137" ry="21.69"/>
		<g>
			<path style="fill:#C2A220;" d="M609.515,485.215v-3.848c-2.714-0.12-5.347-0.849-6.886-1.741l1.215-4.739     c1.7,0.932,4.091,1.782,6.723,1.782c2.309,0,3.888-0.89,3.888-2.511c0-1.538-1.296-2.51-4.292-3.524     c-4.335-1.458-7.292-3.483-7.292-7.412c0-3.563,2.511-6.358,6.845-7.209v-3.847h3.969v3.563c2.714,0.122,4.538,0.689,5.874,1.337     l-1.174,4.577c-1.054-0.447-2.917-1.378-5.832-1.378c-2.633,0-3.484,1.134-3.484,2.269c0,1.337,1.418,2.186,4.861,3.483     c4.82,1.702,6.764,3.929,6.764,7.574c0,3.606-2.552,6.683-7.209,7.494v4.13H609.515z"/>
		</g>
		<g>
			<path style="fill:#FDE721;" d="M611.568,484.188v-3.849c-2.714-0.12-5.348-0.849-6.886-1.741l1.215-4.739     c1.7,0.932,4.091,1.783,6.723,1.783c2.308,0,3.888-0.89,3.888-2.511c0-1.538-1.296-2.51-4.292-3.524     c-4.335-1.458-7.292-3.482-7.292-7.412c0-3.563,2.511-6.358,6.845-7.209v-3.847h3.969v3.563c2.714,0.122,4.538,0.689,5.874,1.337     l-1.174,4.577c-1.054-0.447-2.917-1.379-5.832-1.379c-2.634,0-3.484,1.134-3.484,2.269c0,1.337,1.418,2.186,4.861,3.482     c4.82,1.702,6.764,3.929,6.764,7.574c0,3.606-2.552,6.683-7.209,7.494v4.13H611.568z"/>
		</g>
		<path style="fill:#FFFFFF;" d="M631.419,436.79c0,0,0,14.494-14.421,14.494c14.421,0,14.421,14.494,14.421,14.494    s0-14.494,14.421-14.494C631.419,451.285,631.419,436.79,631.419,436.79z"/>
		<path style="fill:#FFFFFF;" d="M599.059,483.291c0,0,0,8.648-8.604,8.648c8.604,0,8.604,8.648,8.604,8.648s0-8.648,8.604-8.648    C599.059,491.939,599.059,483.291,599.059,483.291z"/>
		<g>
			<g>
				<g>
					<path style="fill:#F9DE3B;" d="M341.118,137.892c0-9.966-8.079-18.045-18.045-18.045c-9.966,0-18.045,8.079-18.045,18.045       c0,4.121,1.384,7.917,3.709,10.954h-0.004c3.03,4.074,8.088,11.024,8.088,18.946h6.252h6.252       c0-7.923,5.058-14.873,8.088-18.946h-0.003C339.734,145.809,341.118,142.013,341.118,137.892z"/>
					<path style="fill:#FFFFFF;" d="M322.431,133.621c0,3.037-2.462,5.499-5.499,5.499c-3.037,0-5.499-2.462-5.499-5.499       c0-3.037,2.462-5.499,5.499-5.499C319.969,128.122,322.431,130.584,322.431,133.621z"/>
					<path style="fill:#FFFFFF;" d="M316.688,143.195c0,1.335-1.082,2.417-2.418,2.417c-1.335,0-2.417-1.082-2.417-2.417       c0-1.335,1.082-2.417,2.417-2.417C315.605,140.778,316.688,141.86,316.688,143.195z"/>
				</g>
				<path style="opacity:0.4;fill:#D7C034;" d="M341.118,137.892c0-6.401-3.342-12.009-8.366-15.213      c1.091,2.469,1.695,5.176,1.695,8.016c0,11.546-9.95,20.907-22.224,20.907c-0.518,0-1.029-0.023-1.538-0.055      c2.859,4.124,6.136,9.868,6.136,16.246h6.252h6.252c0-7.923,5.058-14.873,8.088-18.946h-0.003      C339.734,145.809,341.118,142.013,341.118,137.892z"/>
			</g>
			<path style="fill:#3B76C2;" d="M330.99,182.195c0,1.548-3.545,2.803-7.917,2.803c-4.373,0-7.917-1.255-7.917-2.803     c0-1.548,3.545-2.803,7.917-2.803C327.445,179.392,330.99,180.647,330.99,182.195z"/>
			<path style="fill:#215192;" d="M333.455,179.536c0,0.952-0.772,1.724-1.724,1.724h-17.317c-0.952,0-1.724-0.772-1.724-1.724     v-12.51c0-0.952,0.772-1.724,1.724-1.724h17.317c0.952,0,1.724,0.772,1.724,1.724V179.536z"/>
			<g>
				<path style="fill:#3B76C2;" d="M335.175,168.618c0,0.987-0.8,1.868-1.786,1.969l-20.633,2.111      c-0.987,0.101-1.786-0.617-1.786-1.604l0,0c0-0.987,0.8-1.868,1.786-1.969l20.633-2.111      C334.376,166.913,335.175,167.632,335.175,168.618L335.175,168.618z"/>
				<path style="fill:#3B76C2;" d="M335.175,175.138c0,0.987-0.8,1.868-1.786,1.969l-20.633,2.111      c-0.987,0.101-1.786-0.617-1.786-1.604l0,0c0-0.987,0.8-1.868,1.786-1.969l20.633-2.111      C334.376,173.434,335.175,174.152,335.175,175.138L335.175,175.138z"/>
			</g>
		</g>
	</g>
</g>
<g id="Designed_by_Freepik">
	<g>
		<g>
			
			
			
			
			
			
			
			
			
			
		</g>
		<g>
			
			
			
			
			
			
			
			
			
			
			
		</g>
		
	</g>
</g>
</svg>